<svg width="156" height="110" viewBox="0 0 156 110" fill="none" xmlns="http://www.w3.org/2000/svg">
<path d="M88 14C88 11.7909 89.7909 10 92 10H152C154.209 10 156 11.7909 156 14V92C156 94.2091 154.209 96 152 96H92C89.7909 96 88 94.2091 88 92V14Z" fill="#66FFDA"/>
<rect x="102" y="25" width="40" height="56" rx="3.36607" fill="#0A192F"/>
<path d="M88.4235 52.5311C90.1511 53.7237 90.1511 56.2763 88.4235 57.4689L27.7043 99.384C25.7143 100.758 23 99.3332 23 96.9151L23 13.0849C23 10.6668 25.7143 9.24228 27.7043 10.616L88.4235 52.5311Z" fill="#66FFDA"/>
<path d="M67.3493 53.3281C68.1467 53.8785 68.1467 55.0567 67.3493 55.6071L37.4212 76.2668C36.5027 76.9008 35.25 76.2433 35.25 75.1273L35.25 33.8079C35.25 32.6919 36.5027 32.0344 37.4212 32.6684L67.3493 53.3281Z" fill="#0A192F"/>
</svg>
